<svg xmlns="http://www.w3.org/2000/svg" xmlns:xlink="http://www.w3.org/1999/xlink" width="178.297" height="40.927" viewBox="0 0 178.297 40.927">
  <defs>
    <clipPath id="clip-path">
      <path id="SVGID" d="M378.421,463.962H343A29.339,29.339,0,0,0,372.339,493.3h6.083a14.669,14.669,0,0,0,14.67-14.669h0A14.67,14.67,0,0,0,378.421,463.962Z" transform="translate(-343 -463.962)" fill="none"/>
    </clipPath>
    <clipPath id="clip-path-2">
      <path id="SVGID-2" data-name="SVGID" d="M393.091,478.632a14.67,14.67,0,0,0-14.67-14.67H343a29.236,29.236,0,0,0,8.324,20.463A29.236,29.236,0,0,0,343,504.889h35.421a14.67,14.67,0,0,0,14.67-14.669h0a14.614,14.614,0,0,0-1.191-5.794,14.612,14.612,0,0,0,1.191-5.794Z" transform="translate(-343 -463.962)" fill="none"/>
    </clipPath>
    <clipPath id="clip-path-3">
      <path id="SVGID-3" data-name="SVGID" d="M378.421,484.369h-6.083A29.339,29.339,0,0,0,343,513.708h35.421a14.67,14.67,0,0,0,14.67-14.67h0A14.669,14.669,0,0,0,378.421,484.369Z" transform="translate(-343 -484.369)" fill="none"/>
    </clipPath>
  </defs>
  <g id="Group_355" data-name="Group 355" transform="translate(-343 -463.962)">
    <g id="Group_345" data-name="Group 345" transform="translate(407.275 474.286)">
      <path id="Path_337" data-name="Path 337" d="M456.2,501.966v-18.75h6.639a7.475,7.475,0,0,1,4.776,1.317,4.57,4.57,0,0,1,1.634,3.776v.355a4.533,4.533,0,0,1-.494,2.229,4.035,4.035,0,0,1-1.355,1.445,4.3,4.3,0,0,1,1.913,1.495,4.394,4.394,0,0,1,.7,2.585v.354a4.709,4.709,0,0,1-1.634,3.839,7.317,7.317,0,0,1-4.777,1.355Zm6.968-15.862h-3.446v5.017h3.446a2.419,2.419,0,0,0,1.9-.684,3.04,3.04,0,0,0,0-3.648A2.418,2.418,0,0,0,463.163,486.1Zm.684,7.8h-4.13v5.168h4.13a2.556,2.556,0,0,0,1.926-.683,2.666,2.666,0,0,0,.659-1.927,2.322,2.322,0,0,0-2.585-2.559Z" transform="translate(-456.195 -482.607)" fill="#272733"/>
      <path id="Path_338" data-name="Path 338" d="M486.1,501.376V490.253h-1.926v-2.635h5.448v13.759Zm1.292-15.406a1.8,1.8,0,0,1-2.027-1.925,1.933,1.933,0,0,1,.494-1.369,2,2,0,0,1,1.533-.532,1.961,1.961,0,0,1,1.508.532,1.933,1.933,0,0,1,.494,1.369,1.979,1.979,0,0,1-.494,1.381A1.935,1.935,0,0,1,487.392,485.971Z" transform="translate(-468.287 -482.144)" fill="#272733"/>
      <path id="Path_339" data-name="Path 339" d="M499.909,501.936V486.073h-1.723v-2.635h5.245v18.5Z" transform="translate(-474.342 -482.703)" fill="#272733"/>
      <path id="Path_340" data-name="Path 340" d="M513.519,501.936V486.073H511.8v-2.635h5.245v18.5Z" transform="translate(-480.224 -482.703)" fill="#272733"/>
      <path id="Path_341" data-name="Path 341" d="M528.127,505.407V491.648h2.787v4.485q.557-4.662,4.916-4.662h.506v3.066h-.962a3.359,3.359,0,0,0-3.725,3.7v7.17Z" transform="translate(-487.282 -486.175)" fill="#272733"/>
      <path id="Path_342" data-name="Path 342" d="M550.859,505.664a7.282,7.282,0,0,1-4.447-1.2,4.125,4.125,0,0,1-1.685-3.332h3.167a1.812,1.812,0,0,0,.773,1.3,3.6,3.6,0,0,0,2.242.57,3.857,3.857,0,0,0,2-.455,1.393,1.393,0,0,0,.76-1.242,1.24,1.24,0,0,0-.57-1.077,4.451,4.451,0,0,0-1.938-.544l-1.216-.127a6.381,6.381,0,0,1-3.56-1.317,3.565,3.565,0,0,1-1.229-2.838,3.922,3.922,0,0,1,.71-2.37,4.316,4.316,0,0,1,1.964-1.469,7.806,7.806,0,0,1,2.876-.494,6.885,6.885,0,0,1,4.105,1.127,3.95,3.95,0,0,1,1.647,3.257h-3.167a1.756,1.756,0,0,0-.722-1.216,3.007,3.007,0,0,0-1.887-.508,2.954,2.954,0,0,0-1.723.431,1.312,1.312,0,0,0-.608,1.115,1.185,1.185,0,0,0,.482,1.014,3.476,3.476,0,0,0,1.622.481l1.216.127a7.309,7.309,0,0,1,3.8,1.343,3.537,3.537,0,0,1,1.394,2.939,3.849,3.849,0,0,1-.747,2.369,4.864,4.864,0,0,1-2.091,1.559A8.246,8.246,0,0,1,550.859,505.664Z" transform="translate(-494.457 -486.002)" fill="#272733"/>
      <path id="Path_343" data-name="Path 343" d="M572.128,505.542l-3.75-13.759H571.8l2.813,10.87h.532L577.2,492.24h4.054l2.357,10.413h.532l2.509-10.87h3.193l-3.32,13.759h-5.042l-2.28-9.882-2.027,9.882Z" transform="translate(-504.678 -486.31)" fill="#272733"/>
      <path id="Path_344" data-name="Path 344" d="M610.733,501.376V490.253h-1.926v-2.635h5.448v13.759Zm1.292-15.406A1.805,1.805,0,0,1,610,484.045a1.933,1.933,0,0,1,.494-1.369,2,2,0,0,1,1.533-.532,1.961,1.961,0,0,1,1.508.532,1.933,1.933,0,0,1,.494,1.369,1.979,1.979,0,0,1-.494,1.381A1.935,1.935,0,0,1,612.025,485.971Z" transform="translate(-522.15 -482.144)" fill="#272733"/>
      <path id="Path_345" data-name="Path 345" d="M624.809,501.781V490.835h-1.723v-2.584h1.723v-.558a4.362,4.362,0,0,1,1.3-3.484,5.768,5.768,0,0,1,3.865-1.128H631.7v2.711h-1.977a1.63,1.63,0,0,0-1.2.418,1.594,1.594,0,0,0-.418,1.179v.861h3.826v2.584H628.1v10.947Z" transform="translate(-528.321 -482.549)" fill="#272733"/>
      <path id="Path_346" data-name="Path 346" d="M647.618,502.768a8.571,8.571,0,0,1-3.142-.494,3.4,3.4,0,0,1-1.837-1.66,7.089,7.089,0,0,1-.6-3.193v-6.005h-2.179v-2.584h2.179l.025-3.877h3.294l-.025,3.877h4.257v2.584h-4.257v6.234a1.9,1.9,0,0,0,2.1,2.1h2.154v3.015Z" transform="translate(-535.572 -483.359)" fill="#272733"/>
    </g>
    <g id="Group_354" data-name="Group 354" transform="translate(343 463.962)">
      <g id="Group_348" data-name="Group 348">
        <g id="Group_347" data-name="Group 347" clip-path="url(#clip-path)">
          <g id="Group_346" data-name="Group 346" transform="translate(-17.192 -27.569)">
            <rect id="Rectangle_70" data-name="Rectangle 70" width="63.301" height="10.154" transform="translate(0 44.761) rotate(-45)" fill="#d2006b"/>
            <rect id="Rectangle_71" data-name="Rectangle 71" width="63.301" height="10.154" transform="translate(7.18 51.941) rotate(-45)" fill="#e42e45"/>
            <rect id="Rectangle_72" data-name="Rectangle 72" width="63.301" height="10.154" transform="translate(14.359 59.12) rotate(-45)" fill="#e76936"/>
            <rect id="Rectangle_73" data-name="Rectangle 73" width="63.301" height="10.154" transform="translate(21.539 66.3) rotate(-45)" fill="#ec9850"/>
            <rect id="Rectangle_74" data-name="Rectangle 74" width="63.301" height="10.154" transform="translate(28.719 73.48) rotate(-45)" fill="#e1e489"/>
          </g>
        </g>
      </g>
      <g id="Group_350" data-name="Group 350">
        <g id="Group_349" data-name="Group 349" clip-path="url(#clip-path-2)">
        </g>
      </g>
      <g id="Group_353" data-name="Group 353" transform="translate(0 11.588)">
        <g id="Group_352" data-name="Group 352" clip-path="url(#clip-path-3)">
          <g id="Group_351" data-name="Group 351" transform="translate(-17.192 -23.752)">
            <rect id="Rectangle_75" data-name="Rectangle 75" width="10.154" height="63.301" transform="translate(0 35.899) rotate(-45)" fill="#d2006b"/>
            <rect id="Rectangle_76" data-name="Rectangle 76" width="10.154" height="63.301" transform="translate(7.18 28.719) rotate(-45)" fill="#e42e45"/>
            <rect id="Rectangle_77" data-name="Rectangle 77" width="10.154" height="63.301" transform="translate(14.359 21.539) rotate(-45)" fill="#e76936"/>
            <rect id="Rectangle_78" data-name="Rectangle 78" width="10.154" height="63.301" transform="translate(21.539 14.359) rotate(-45)" fill="#ec9850"/>
            <rect id="Rectangle_79" data-name="Rectangle 79" width="10.154" height="63.301" transform="translate(28.719 7.18) rotate(-45)" fill="#e1e489"/>
          </g>
        </g>
      </g>
    </g>
  </g>
</svg>
